<svg width="20" height="20" viewBox="0 0 20 20" fill="none" xmlns="http://www.w3.org/2000/svg">
    <g clip-path="url(#h9mokzojea)">
        <path d="M10 0a10 10 0 1 0 10 10A10.011 10.011 0 0 0 10 0zm0 18.333A8.333 8.333 0 1 1 18.333 10 8.342 8.342 0 0 1 10 18.333zM14.167 10a.833.833 0 0 1-.834.833h-2.5v2.5a.834.834 0 0 1-1.666 0v-2.5h-2.5a.834.834 0 0 1 0-1.666h2.5v-2.5a.833.833 0 1 1 1.666 0v2.5h2.5a.833.833 0 0 1 .834.833z" fill="#5A5E6A"/>
    </g>
    <defs>
        <clipPath id="h9mokzojea">
            <path fill="#fff" d="M0 0h20v20H0z"/>
        </clipPath>
    </defs>
</svg>
