<svg width="32" height="32" viewBox="0 0 32 32" fill="none" xmlns="http://www.w3.org/2000/svg">
    <g clip-path="url(#aonyxg0yxa)">
        <path d="M1.173 18.787 6.333 24a1.331 1.331 0 0 0 1.894 0 1.334 1.334 0 0 0 0-1.893L3.48 17.333h27.187a1.333 1.333 0 0 0 0-2.666H3.4L8.227 9.84a1.333 1.333 0 0 0 0-1.84 1.333 1.333 0 0 0-1.894 0l-5.16 5.133a4 4 0 0 0 0 5.654z" fill="#000"/>
    </g>
    <defs>
        <clipPath id="aonyxg0yxa">
            <path fill="#fff" d="M0 0h32v32H0z"/>
        </clipPath>
    </defs>
</svg>
