<svg width="20" height="20" viewBox="0 0 20 20" fill="none" xmlns="http://www.w3.org/2000/svg">
    <g clip-path="url(#4601a719ja)" fill="#5A5E6A">
        <path d="M10 10a5 5 0 1 0 0-10 5 5 0 0 0 0 10zm0-8.333a3.333 3.333 0 1 1 0 6.666 3.333 3.333 0 0 1 0-6.666zM10 11.667a7.508 7.508 0 0 0-7.5 7.5.833.833 0 1 0 1.667 0 5.833 5.833 0 1 1 11.666 0 .833.833 0 1 0 1.667 0 7.509 7.509 0 0 0-7.5-7.5z"/>
    </g>
    <defs>
        <clipPath id="4601a719ja">
            <path fill="#fff" d="M0 0h20v20H0z"/>
        </clipPath>
    </defs>
</svg>
