<svg width="78" height="22" viewBox="0 0 78 22" fill="none" xmlns="http://www.w3.org/2000/svg">
    <path d="M59.685 7.378a7.354 7.354 0 0 0-4.232 1.47 7.536 7.536 0 0 0-2.633 3.671 6.04 6.04 0 0 0 .56 5.373 5.208 5.208 0 0 0 1.932 1.48 5.13 5.13 0 0 0 2.382.432 6.796 6.796 0 0 0 3.016-.626 6.9 6.9 0 0 0 2.446-1.898l.025-.03-2.281-1.853-.025.03a3.847 3.847 0 0 1-1.21 1.234 3.78 3.78 0 0 1-1.618.573 2.105 2.105 0 0 1-1.008-.22 2.139 2.139 0 0 1-.789-.675 2.025 2.025 0 0 1-.288-1.938h8.286l.12-.686c.19-.816.2-1.664.032-2.484a5.763 5.763 0 0 0-1.008-2.264 4.65 4.65 0 0 0-1.675-1.223 4.585 4.585 0 0 0-2.032-.366zm1.783 4.984h-5.135a3.19 3.19 0 0 1 1.062-1.832 3.103 3.103 0 0 1 1.96-.743 1.988 1.988 0 0 1 1.532.633 2.619 2.619 0 0 1 .583 1.942h-.002zM76.508 8.966a4.651 4.651 0 0 0-1.675-1.222 4.586 4.586 0 0 0-2.03-.366 7.353 7.353 0 0 0-4.233 1.47 7.535 7.535 0 0 0-2.633 3.671 6.038 6.038 0 0 0 .56 5.373 5.208 5.208 0 0 0 1.932 1.48 5.13 5.13 0 0 0 2.382.432 6.796 6.796 0 0 0 3.016-.626 6.899 6.899 0 0 0 2.446-1.898l.025-.03-2.281-1.853-.025.03a3.8 3.8 0 0 1-1.206 1.24 3.731 3.731 0 0 1-1.622.567h-.121a2.141 2.141 0 0 1-.94-.254 2.176 2.176 0 0 1-.736-.645 2.037 2.037 0 0 1-.288-1.938h8.287l.12-.687c.189-.815.2-1.662.03-2.482a5.762 5.762 0 0 0-1.008-2.262zm-1.923 3.396H69.45a3.19 3.19 0 0 1 1.062-1.832 3.104 3.104 0 0 1 1.96-.743 1.987 1.987 0 0 1 1.532.633 2.594 2.594 0 0 1 .581 1.942zM15.434 9.15 13.625 19.57H17.2l2.283-13.143h-.89a3.312 3.312 0 0 0-2.046.805 3.402 3.402 0 0 0-1.113 1.92zM6.559 9.15 4.749 19.57h3.575l2.286-13.14h-.89a3.311 3.311 0 0 0-2.047.802 3.402 3.402 0 0 0-1.114 1.92zM18.513 1.8c-.5.019-.98.208-1.361.537-.382.329-.642.78-.74 1.278a1.503 1.503 0 0 0 .294 1.276 1.46 1.46 0 0 0 1.178.539c.5-.019.98-.208 1.361-.537.382-.33.642-.78.74-1.278a1.502 1.502 0 0 0-.295-1.276 1.439 1.439 0 0 0-1.177-.538zM25.755 8.958l.44-2.53h-.758a3.473 3.473 0 0 0-2.146.846 3.568 3.568 0 0 0-1.165 2.014L20.34 19.573h3.575l.942-5.425c.348-2.004 1.577-2.768 3.382-3.071l.747-.125.665-3.83s-2.88.076-3.896 1.836zM40.94 9.288l-1.786 10.285h3.575l2.282-13.145h-.758a3.472 3.472 0 0 0-2.146.845 3.567 3.567 0 0 0-1.167 2.015zM47.72 9.288l-1.787 10.285h3.575l2.283-13.142h-.758a3.473 3.473 0 0 0-2.146.843 3.568 3.568 0 0 0-1.167 2.014zM44.06 1.8c-.5.019-.98.208-1.36.537-.382.329-.643.78-.741 1.278a1.502 1.502 0 0 0 .294 1.276 1.44 1.44 0 0 0 1.177.539c.5-.019.98-.208 1.361-.537.382-.33.643-.78.74-1.278a1.502 1.502 0 0 0-.294-1.276 1.44 1.44 0 0 0-1.176-.538zM34.848 8.958l.44-2.53h-.759a3.473 3.473 0 0 0-2.144.846 3.568 3.568 0 0 0-1.165 2.014l-1.787 10.285h3.575l.941-5.425c.348-2.004 1.578-2.768 3.383-3.071l.746-.125.665-3.83s-2.88.076-3.895 1.836z" fill="#226BEF"/>
    <path d="M13.935 10.19c.617-2.43-1.233-4.504-4.133-4.634 0 0-2.114-.072-2.817-.125-3.442-.262-4.105-1.506-3.95-2.363.154-.857-3.447 2.682-.553 5.18a1.781 1.781 0 0 1-.992-.282 1.821 1.821 0 0 1-.677-.79 2.733 2.733 0 0 1-.37-1.383s-1.284 2.023.524 2.97c1.257.66 12.968 1.43 12.968 1.43v-.004z" fill="#226BEF"/>
</svg>
